<svg xmlns="http://www.w3.org/2000/svg" version="1.1" xmlns:xlink="http://www.w3.org/1999/xlink" xmlns:svgjs="http://svgjs.dev/svgjs" width="1500" height="234" viewBox="0 0 1500 234"><g transform="matrix(1,0,0,1,-0.9090909090909918,-1.8306766158804635)"><svg viewBox="0 0 396 62" data-background-color="#fff3e1" preserveAspectRatio="xMidYMid meet" height="234" width="1500" xmlns="http://www.w3.org/2000/svg" xmlns:xlink="http://www.w3.org/1999/xlink"><g id="tight-bounds" transform="matrix(1,0,0,1,0.2400000000000091,0.4850510691649106)"><svg viewBox="0 0 395.52 61.02989786167015" height="61.02989786167015" width="395.52"><g><svg viewBox="0 0 450.3711502993749 69.49359148112295" height="61.02989786167015" width="395.52"><g transform="matrix(1,0,0,1,54.85115029937491,0)"><svg viewBox="0 0 395.52 69.49359148112295" height="69.49359148112295" width="395.52"><g id="textblocktransform"><svg viewBox="0 0 395.52 69.49359148112295" height="69.49359148112295" width="395.52" id="textblock"><g><svg viewBox="0 0 395.52 69.49359148112295" height="69.49359148112295" width="395.52"><g transform="matrix(1,0,0,1,0,0)"><svg width="395.52" viewBox="2.3 -35.85 206.57999999999998 36.300000000000004" height="69.49359148112295" data-palette-color="#2a2325"><path d="M17.45 0.45L17.45 0.45Q16.85 0.2 16.5-0.48 16.15-1.15 16.15-2.5L16.15-2.5Q16.15-3 16.23-3.68 16.3-4.35 16.45-4.95L16.45-4.95 16.6-4.95Q16.4-4 15.83-3.05 15.25-2.1 14.4-1.35L14.4-1.35Q13.5-0.6 12.15-0.13 10.8 0.35 8.95 0.35L8.95 0.35Q5.75 0.35 4.03-1.07 2.3-2.5 2.3-5.05L2.3-5.05Q2.3-7 3.23-8.38 4.15-9.75 5.63-10.68 7.1-11.6 8.85-12.15 10.6-12.7 12.33-13.03 14.05-13.35 15.45-13.55L15.45-13.55Q15.45-15.45 15.38-16.55 15.3-17.65 15.08-18.32 14.85-19 14.4-19.5L14.4-19.5Q13.8-20.2 13.05-20.55 12.3-20.9 11.4-20.9L11.4-20.9Q9.8-20.9 8.9-19.93 8-18.95 7.6-17.63 7.2-16.3 7.1-15.15L7.1-15.15Q6.4-15.15 5.5-15.25 4.6-15.35 4.05-15.55L4.05-15.55Q4.15-16.85 4.13-18.4 4.1-19.95 3.8-21.15L3.8-21.15Q5.9-22.2 8.3-22.78 10.7-23.35 12.75-23.35L12.75-23.35Q14.9-23.35 16.35-22.8 17.8-22.25 18.6-21.35L18.6-21.35Q19.85-20.15 20.3-18.18 20.75-16.2 20.75-12.8L20.75-12.8 20.75-7.65Q20.75-6.2 20.98-5.35 21.2-4.5 21.85-4.13 22.5-3.75 23.8-3.7L23.8-3.7Q23.85-3.1 23.78-2.4 23.7-1.7 23.45-1.1L23.45-1.1Q22.05-1.05 20.4-0.65 18.75-0.25 17.45 0.45ZM10.65-2.8L10.65-2.8Q11.75-2.8 12.85-3.53 13.95-4.25 14.7-5.73 15.45-7.2 15.45-9.6L15.45-9.6 15.45-11.35Q14.15-11.15 12.8-10.85 11.45-10.55 10.33-10 9.2-9.45 8.53-8.55 7.85-7.65 7.85-6.15L7.85-6.15Q7.85-4.4 8.7-3.6 9.55-2.8 10.65-2.8ZM43.85-21.65L43.85-21.65Q43.8-20.4 43.8-19.05 43.8-17.7 44-16.4L44-16.4Q43.45-16.1 42.67-15.93 41.9-15.75 41.1-15.75L41.1-15.75Q41-17.1 40.32-18.3 39.65-19.5 38.5-20.25 37.35-21 35.75-21L35.75-21Q34.3-21 33.45-20.3 32.6-19.6 32.6-18.45L32.6-18.45Q32.6-17.65 32.95-17.03 33.3-16.4 34.55-15.68 35.8-14.95 38.4-13.9L38.4-13.9Q41.15-12.9 42.7-11.88 44.25-10.85 44.92-9.63 45.6-8.4 45.6-6.6L45.6-6.6Q45.6-4.5 44.37-2.9 43.15-1.3 40.97-0.43 38.8 0.45 36.05 0.45L36.05 0.45Q33 0.45 31.17-0.03 29.35-0.5 27.55-1.35L27.55-1.35Q27.7-2.2 27.72-3.35 27.75-4.5 27.75-5.63 27.75-6.75 27.65-7.55L27.65-7.55Q28.1-7.9 28.95-8.05 29.8-8.2 30.6-8.2L30.6-8.2Q31-5.15 32.47-3.65 33.95-2.15 36.4-2.15L36.4-2.15Q38.25-2.15 39.32-2.98 40.4-3.8 40.4-5.15L40.4-5.15Q40.4-6 39.97-6.65 39.55-7.3 38.45-7.93 37.35-8.55 35.15-9.4L35.15-9.4Q32.55-10.45 30.92-11.4 29.3-12.35 28.55-13.68 27.8-15 27.8-17.05L27.8-17.05Q27.8-18.65 28.6-19.85 29.4-21.05 30.67-21.83 31.95-22.6 33.47-22.98 35-23.35 36.4-23.35L36.4-23.35Q38.8-23.35 40.55-22.93 42.3-22.5 43.85-21.65ZM49.2 0.15L49.2 0.15Q49.2-0.45 49.25-1.1 49.3-1.75 49.45-2.25L49.45-2.25Q51.45-2.3 52.17-3.2 52.9-4.1 52.9-6.6L52.9-6.6 52.9-28.45Q52.9-29.65 52.65-30.43 52.4-31.2 51.6-31.6 50.8-32 49.15-32L49.15-32Q49.15-32.6 49.25-33.15 49.35-33.7 49.6-34.15L49.6-34.15Q50.65-34.15 52.15-34.4 53.65-34.65 54.97-35.05 56.3-35.45 56.95-35.85L56.95-35.85Q57.45-35.65 57.8-35.15 58.15-34.65 58.15-33.65L58.15-33.65 58.15-6.6Q58.15-4.15 58.8-3.23 59.45-2.3 61-2.25L61-2.25Q61.15-1.75 61.2-1.05 61.25-0.35 61.25 0.15L61.25 0.15Q60 0.05 58.45 0.03 56.9 0 55.3 0L55.3 0Q54.25 0 53.12 0.03 52 0.05 51 0.08 50 0.1 49.2 0.15ZM67.5 0.45L67.5 0.45Q66.4-1.25 64.57-3.6 62.75-5.95 60.7-8.33 58.65-10.7 56.8-12.5L56.8-12.5 56.65-11.5 61.8-16.15Q63.45-17.6 64.09-18.5 64.75-19.4 64.75-19.85L64.75-19.85Q64.75-20.25 64.4-20.45 64.05-20.65 63.35-20.65L63.35-20.65Q63.15-21.25 63.07-21.83 63-22.4 63-23L63-23Q64-22.95 65-22.93 66-22.9 66.95-22.9 67.9-22.9 68.7-22.9L68.7-22.9Q69.65-22.9 70.87-22.93 72.09-22.95 73.4-23L73.4-23Q73.4-22.4 73.32-21.78 73.25-21.15 73-20.65L73-20.65Q72-20.6 71.05-20.3 70.09-20 69.09-19.38 68.09-18.75 66.84-17.6L66.84-17.6 61.7-12.9 61.5-14.75Q63.4-12.85 65.32-10.7 67.25-8.55 69.8-5.4L69.8-5.4Q70.7-4.25 71.4-3.65 72.09-3.05 72.84-2.78 73.59-2.5 74.7-2.4L74.7-2.4Q74.7-1.65 74.62-1.05 74.55-0.45 74.4 0L74.4 0Q73.15 0 72 0.05 70.84 0.1 69.72 0.18 68.59 0.25 67.5 0.45ZM85.04-2.9L84.39-4.45Q85.34-3.4 86.47-2.73 87.59-2.05 89.24-2.05L89.24-2.05Q90.29-2.05 91.47-2.45 92.64-2.85 93.74-3.9 94.84-4.95 95.52-6.8 96.19-8.65 96.19-11.65L96.19-11.65Q96.19-14.6 95.34-16.4 94.49-18.2 93.27-19.07 92.04-19.95 90.84-19.95L90.84-19.95Q89.44-19.95 88.12-19.05 86.79-18.15 85.92-16.13 85.04-14.1 85.04-10.7L85.04-10.7 85.04-2.9ZM89.04 0.45L89.04 0.45Q86.74 0.45 84.74 0 82.74-0.45 81.22-1.23 79.69-2 78.64-3L78.64-3Q79.24-3.7 79.52-5.03 79.79-6.35 79.79-9.1L79.79-9.1 79.79-28.45Q79.79-29.65 79.54-30.43 79.29-31.2 78.49-31.6 77.69-32 76.04-32L76.04-32Q76.04-32.6 76.14-33.15 76.24-33.7 76.49-34.15L76.49-34.15Q77.54-34.15 79.04-34.4 80.54-34.65 81.87-35.05 83.19-35.45 83.84-35.85L83.84-35.85Q84.34-35.65 84.69-35.15 85.04-34.65 85.04-33.65L85.04-33.65 85.04-21.3Q85.04-20.25 84.94-19.58 84.84-18.9 84.74-18.25L84.74-18.25 84.44-14.05 83.44-15.95Q84.14-17.65 84.69-18.57 85.24-19.5 85.59-19.9L85.59-19.9Q86.04-20.65 87.02-21.45 87.99-22.25 89.37-22.8 90.74-23.35 92.34-23.35L92.34-23.35Q95.29-23.35 97.42-22.2 99.54-21.05 100.69-18.63 101.84-16.2 101.84-12.4L101.84-12.4Q101.84-8.8 100.27-5.9 98.69-3 95.82-1.28 92.94 0.45 89.04 0.45ZM116.74 0.45L116.74 0.45Q112.99 0.45 110.57-1.15 108.14-2.75 106.92-5.45 105.69-8.15 105.69-11.4L105.69-11.4Q105.69-14.7 106.99-17.4 108.29-20.1 110.72-21.73 113.14-23.35 116.44-23.35L116.44-23.35Q119.79-23.35 121.84-21.95 123.89-20.55 124.92-18.2 125.94-15.85 126.09-12.9L126.09-12.9Q125.89-11.75 125.24-11L125.24-11Q124.24-11 122.52-11 120.79-11 118.67-10.98 116.54-10.95 114.32-10.88 112.09-10.8 110.14-10.7L110.14-10.7 110.14-13.45 120.44-13.45Q120.44-16.75 119.32-18.75 118.19-20.75 116.09-20.75L116.09-20.75Q114.89-20.75 113.79-20 112.69-19.25 111.99-17.48 111.29-15.7 111.29-12.55L111.29-12.55Q111.29-10.05 111.94-7.78 112.59-5.5 114.14-4.08 115.69-2.65 118.54-2.65L118.54-2.65Q120.19-2.65 121.82-3.35 123.44-4.05 124.69-5.35L124.69-5.35Q125.09-5.15 125.47-4.6 125.84-4.05 125.89-3.55L125.89-3.55Q124.14-1.4 121.87-0.48 119.59 0.45 116.74 0.45ZM138.69 0.45L138.69 0.45Q135.59 0.45 134.06-1.15 132.54-2.75 132.54-6.4L132.54-6.4 132.54-19.3Q131.79-19.55 130.96-19.73 130.14-19.9 128.94-19.95L128.94-19.95Q128.94-20.65 129.04-21.2 129.14-21.75 129.39-22.4L129.39-22.4 132.54-22.4 132.54-28.85Q133.74-29.1 134.91-29.7 136.09-30.3 136.89-31L136.89-31Q137.44-30.8 137.64-30.35 137.84-29.9 137.84-28.25L137.84-28.25 137.84-22.4 144.24-22.4Q144.24-21.8 144.14-21.15 144.04-20.5 143.79-19.9L143.79-19.9Q141.99-19.9 140.51-19.7 139.04-19.5 137.84-19.25L137.84-19.25 137.84-7.4Q137.84-5.65 138.16-4.58 138.49-3.5 139.11-3 139.74-2.5 140.64-2.5L140.64-2.5Q141.64-2.5 142.41-2.78 143.19-3.05 143.89-3.6L143.89-3.6Q144.54-2.8 144.64-1.7L144.64-1.7Q143.79-0.8 142.09-0.18 140.39 0.45 138.69 0.45ZM156.59 0.45L156.59 0.45Q153.49 0.45 151.96-1.15 150.44-2.75 150.44-6.4L150.44-6.4 150.44-19.3Q149.69-19.55 148.86-19.73 148.04-19.9 146.84-19.95L146.84-19.95Q146.84-20.65 146.94-21.2 147.04-21.75 147.29-22.4L147.29-22.4 150.44-22.4 150.44-28.85Q151.64-29.1 152.81-29.7 153.99-30.3 154.79-31L154.79-31Q155.34-30.8 155.54-30.35 155.74-29.9 155.74-28.25L155.74-28.25 155.74-22.4 162.14-22.4Q162.14-21.8 162.04-21.15 161.94-20.5 161.69-19.9L161.69-19.9Q159.89-19.9 158.41-19.7 156.94-19.5 155.74-19.25L155.74-19.25 155.74-7.4Q155.74-5.65 156.06-4.58 156.39-3.5 157.01-3 157.64-2.5 158.54-2.5L158.54-2.5Q159.54-2.5 160.31-2.78 161.09-3.05 161.79-3.6L161.79-3.6Q162.44-2.8 162.54-1.7L162.54-1.7Q161.69-0.8 159.99-0.18 158.29 0.45 156.59 0.45ZM176.78 0.45L176.78 0.45Q173.03 0.45 170.61-1.15 168.18-2.75 166.96-5.45 165.73-8.15 165.73-11.4L165.73-11.4Q165.73-14.7 167.03-17.4 168.33-20.1 170.76-21.73 173.18-23.35 176.48-23.35L176.48-23.35Q179.83-23.35 181.88-21.95 183.93-20.55 184.96-18.2 185.98-15.85 186.13-12.9L186.13-12.9Q185.93-11.75 185.28-11L185.28-11Q184.28-11 182.56-11 180.83-11 178.71-10.98 176.58-10.95 174.36-10.88 172.13-10.8 170.18-10.7L170.18-10.7 170.18-13.45 180.48-13.45Q180.48-16.75 179.36-18.75 178.23-20.75 176.13-20.75L176.13-20.75Q174.93-20.75 173.83-20 172.73-19.25 172.03-17.48 171.33-15.7 171.33-12.55L171.33-12.55Q171.33-10.05 171.98-7.78 172.63-5.5 174.18-4.08 175.73-2.65 178.58-2.65L178.58-2.65Q180.23-2.65 181.86-3.35 183.48-4.05 184.73-5.35L184.73-5.35Q185.13-5.15 185.51-4.6 185.88-4.05 185.93-3.55L185.93-3.55Q184.18-1.4 181.91-0.48 179.63 0.45 176.78 0.45ZM198.88-11.35L198.88-7.75Q198.88-5.6 199.33-4.45 199.78-3.3 200.81-2.85 201.83-2.4 203.48-2.25L203.48-2.25Q203.63-1.8 203.71-1.2 203.78-0.6 203.78 0.15L203.78 0.15Q202.98 0.1 201.88 0.08 200.78 0.05 199.53 0.03 198.28 0 197.03 0L197.03 0Q195.13 0 193.08 0.03 191.03 0.05 189.88 0.15L189.88 0.15Q189.88-0.65 189.93-1.25 189.98-1.85 190.18-2.25L190.18-2.25Q191.53-2.35 192.26-2.75 192.98-3.15 193.28-4.1 193.58-5.05 193.58-6.8L193.58-6.8 193.58-11.35 198.88-11.35ZM197.98-15.3L198.88-14.65 198.88-10.6 193.58-10.6 193.58-16.15 198.88-21Q198.88-19.45 198.58-18.1 198.28-16.75 197.98-15.3L197.98-15.3ZM198.88-11.9L197.78-15Q198.28-16.35 198.61-17.32 198.93-18.3 199.28-18.9L199.28-18.9Q200.38-20.65 201.91-21.8 203.43-22.95 205.43-22.95L205.43-22.95Q207.33-22.95 208.88-21.75L208.88-21.75Q208.78-20.9 208.68-19.78 208.58-18.65 208.56-17.53 208.53-16.4 208.53-15.45L208.53-15.45Q207.98-15.25 207.08-15.1 206.18-14.95 205.28-14.95L205.28-14.95Q205.18-17.2 204.56-17.98 203.93-18.75 202.93-18.75L202.93-18.75Q202.13-18.75 201.16-17.8 200.18-16.85 199.53-15.3 198.88-13.75 198.88-11.9L198.88-11.9ZM198.88-21L193.58-10.6 193.58-15.8Q193.58-17.1 193.36-17.88 193.13-18.65 192.33-19.05 191.53-19.45 189.88-19.5L189.88-19.5Q189.88-20.1 189.98-20.65 190.08-21.2 190.33-21.65L190.33-21.65Q192.23-21.75 194.38-22.25 196.53-22.75 197.68-23.35L197.68-23.35Q198.18-23.15 198.53-22.65 198.88-22.15 198.88-21L198.88-21Z" opacity="1" transform="matrix(1,0,0,1,0,0)" fill="#2a2325" class="wordmark-text-0" data-fill-palette-color="primary" id="text-0"></path></svg></g></svg></g></svg></g></svg></g><g transform="matrix(1,0,0,1,0,3.053548409680534)"><svg viewBox="0 0 38.44538119687732 63.38649466176188" height="63.38649466176188" width="38.44538119687732"><g><svg xmlns="http://www.w3.org/2000/svg" xmlns:xlink="http://www.w3.org/1999/xlink" version="1.1" x="0" y="0" viewBox="33.941554115680816 23.625 32.086445884319176 52.902254248593735" enable-background="new 0 0 100 100" xml:space="preserve" height="63.38649466176188" width="38.44538119687732" class="icon-icon-0" data-fill-palette-color="accent" id="icon-0"><path fill-rule="evenodd" clip-rule="evenodd" d="M52.9 35.3C53.2 35.4 53.3 35.4 53.5 35.2 53.6 35.1 53.7 35.1 53.8 35S54 34.9 54.1 34.8 54.3 34.7 54.4 34.6 54.6 34.5 54.7 34.4 55.2 34 55.4 33.9C55.5 33.8 55.7 33.6 55.8 33.6S56 33.4 56.1 33.4 56.3 33.2 56.4 33.2 56.6 33 56.7 33L56.9 32.9 57 32.7H57.2L57.3 32.5H57.5L57.6 32.3C57.8 32.2 57.9 32.2 58.1 32.1 58.2 32.1 58.1 32 58.2 32L58.4 31.9 58.5 31.7H58.7L58.8 31.5H59L59.1 31.3H59.3L59.4 31.1H59.6L59.7 30.9C59.9 30.8 60.1 30.8 60.4 30.6L60.5 30.5C60.6 30.4 60.8 30.5 60.9 30.4L61 30.2H61.2C61.3 30.1 61.3 29.9 61.4 29.9 61.9 29.6 62.4 29.3 62.8 29.2 63.8 29.1 64.4 29.7 65.2 30.3 65.3 30.5 65.1 30.7 65.2 30.9S65.3 31.6 65.2 32V32.2C65.1 32.3 65 32.5 64.9 32.7 64.9 32.8 64.9 32.9 64.8 33 64.8 33.1 64.6 33.1 64.6 33.1 64.4 33.4 64.2 33.6 64 33.9S63.7 34.5 63.5 34.7C63.2 35 62.7 35.1 62.3 35.4 62.2 35.5 62.1 35.7 61.9 35.8 61.8 35.9 61.4 36.1 61.2 36.2 61.1 36.2 61.2 36.3 61.1 36.3S60.9 36.5 60.8 36.5 60.5 36.7 60.3 36.8C60.2 36.9 60.2 37 60.1 37H59.9L59.8 37.2C59.7 37.3 59.6 37.2 59.5 37.3S59.4 37.5 59.3 37.6 59.1 37.6 59 37.7C58.8 37.8 58.7 38.1 58.5 38.2 58.4 38.3 58.4 38.3 58.3 38.3S58.1 38.5 58 38.6H57.8L57.7 38.8H57.5L57.4 39H57.2L57.1 39.2C57 39.3 56.9 39.2 56.8 39.3 56.6 39.4 56.5 39.7 56.3 39.8L55.4 40.7C55.3 40.9 55 40.9 55 41.2 55.1 41.6 55.2 41.7 55.5 41.9 55.6 41.9 55.7 42 55.7 42L56.1 42.4C56.2 42.5 56.3 42.4 56.4 42.5 56.5 42.5 56.5 42.7 56.5 42.7 56.6 42.8 56.7 42.7 56.8 42.8 56.9 42.8 56.9 43 57 43 57.1 43.1 57.3 43.2 57.4 43.3S57.6 43.3 57.7 43.4 57.9 43.8 58.1 44C58.5 44.1 58.9 44.2 59.2 44.5L59.6 44.9C59.7 45 59.7 45.1 59.8 45.1H60C60.1 45.2 60.3 45.3 60.5 45.5 60.6 45.6 60.6 45.7 60.7 45.7H60.9C61 45.8 61.2 46 61.4 46.1 61.5 46.2 61.5 46.3 61.6 46.3H61.8C61.9 46.4 62.1 46.6 62.3 46.7 62.4 46.7 62.5 46.7 62.6 46.8S62.9 47.2 63.1 47.4C63.2 47.4 63.3 47.6 63.3 47.6H63.5V47.7C63.6 47.8 63.7 47.7 63.8 47.8 63.9 47.8 63.9 48 64 48 64.1 48.1 64.2 48 64.3 48.1 64.5 48.2 64.6 48.5 64.8 48.7 64.9 48.8 65.1 48.9 65.2 49S65.2 49.3 65.3 49.4L65.5 49.5V49.7L65.7 49.8C65.8 50 65.7 50.1 65.9 50.2 66 50.6 65.8 50.9 65.8 51.2 65.9 51.2 65.9 51.3 65.9 51.4S66.1 51.7 66 52C65.9 52.4 65.2 53 64.8 53.2 64.7 53.5 64.5 53.7 64.3 53.9 64.1 54 63.8 54 63.6 54.1 63.7 54.1 63 54.4 62.9 54.2 62.8 54.1 62.8 54.1 62.6 54.1H62.4C62.3 54 61.5 54 61.2 53.9 61.2 53.9 61.2 53.8 61.1 53.8S60.9 53.6 60.7 53.6L60.4 53.5 60.1 53.2C60 53.2 60 53.1 59.9 53.1L59.6 53C60 53.3 60 53.1 59.8 53L59.6 52.9 59.3 52.6H59.1L59 52.4H58.8C58.7 52.3 58.7 52.1 58.5 52.1L58.3 52 58 51.7C57.9 51.7 57.9 51.6 57.8 51.6 57.7 51.5 57.5 51.3 57.4 51.3S57.3 51.1 57.2 51.1H57L56.7 50.8C56.6 50.8 56.6 50.7 56.5 50.7L56.4 50.6C56 50.4 55.6 50.5 55.3 50.3 55.2 50.3 55.3 50.2 55.2 50.2 55 50.2 55 49.9 54.8 49.8H54.6C54.5 49.7 54.5 49.6 54.3 49.5 54.2 49.4 54.1 49.4 54 49.3S53.8 49.2 53.7 49.1 53.2 48.7 52.9 48.7C52.7 48.8 52.7 48.9 52.6 49.1S52.5 49.5 52.5 49.7C52.4 50.3 52.5 50.9 52.4 51.7 52.4 52 52.3 52.4 52.3 52.9 52.3 53.2 52.4 53.2 52.3 53.5 52.3 53.6 52.5 54.4 52.3 54.5 52 54.8 52 55.5 52 55.9S52 56.7 51.9 57.1C51.9 57.5 51.7 57.9 51.7 58.2 51.6 59.2 51.7 60.1 51.7 61.1V61.3C51.6 61.9 51.7 63.1 51.7 64 51.7 64.3 51.6 64.5 51.6 64.7 51.6 65 51.7 65.3 51.7 65.6 51.8 66.5 51.8 67.6 51.8 68.6 51.8 69.4 51.8 70.3 51.7 71 51.6 71.3 51.7 71.8 51.6 72.3 51.6 72.6 51.5 72.9 51.4 73.1 51.2 73.8 51.1 74.8 51.1 75.8 51 75.9 50.9 75.9 50.8 76L50.7 76.2C50.6 76.3 50.4 76.2 50.3 76.3 50.1 76.4 49.8 76.6 49.3 76.5 49.1 76.5 48.6 76.1 48.2 76H48L47.7 75.9C47.6 75.7 47.4 75.7 47.2 75.5L46.8 75.1C46.4 74.8 46.2 74.6 46.1 74.3 45.9 73.9 46 73.5 46 73 45.9 71.9 45.9 70.9 45.9 69.6 45.9 69.6 46 69.6 46 69.5 46 69.5 45.9 69.5 45.9 69.4V69.1C45.9 67.8 45.9 66.5 46 65.1 46 64.9 46.1 64.7 46.1 64.5 46.2 62.6 45.9 60.3 46.1 58.3 46.2 57.4 46.2 56.6 46.2 55.7 46.2 53.8 46 51.9 46.2 50.3 46.3 49.4 46.7 48.6 46.2 47.8 45.8 47.6 45.5 48.1 45.2 48.1 45.1 48.1 45 48.3 44.9 48.3S44.8 48.4 44.7 48.4 44.6 48.6 44.5 48.6H44.3V48.7C44.2 48.7 44.1 48.7 44 48.8L43.9 49C43.8 49.1 43.7 49 43.6 49.1L43.5 49.3C43.4 49.4 43.3 49.3 43.2 49.4S43 49.8 42.8 49.9C42.7 50 42.6 49.9 42.5 50L42.4 50.2C42.3 50.3 42.2 50.2 42.1 50.3S41.8 50.7 41.6 50.8C41.5 50.9 41.3 51 41.2 51.1S41.1 51.3 41 51.3H40.8C40.3 51.8 40.3 52 40 52 39.8 52 39.8 52.3 39.6 52.3 39.5 52.3 39.5 52.5 39.4 52.5H39.2V52.6C38.9 52.8 38.6 52.7 38.3 52.8 38.3 52.8 38.3 52.9 38.2 52.9 38 52.9 37.4 53.3 37 53.2 37 53.2 37 53.1 36.9 53.1 36.7 53.1 36.6 53.1 36.4 53 36.3 53 36.1 53 36 52.9L35.6 52.5C35.5 52.4 35.3 52.2 35.2 52 35 52 35 52 35 51.8 35 51.7 34.9 51.7 34.9 51.7 34.8 51.3 34.8 50.2 35.1 49.7 35.1 49.6 35.2 49.7 35.2 49.6S35.5 49.2 35.6 49.1H35.8C35.9 49 35.9 48.9 36.1 48.8S36.7 48.5 36.9 48.3C37.2 48 37.3 47.7 37.7 47.5 37.8 47.5 37.8 47.4 37.9 47.4 38 47.3 38.1 47.3 38.2 47.2S38.4 47.1 38.5 47 38.8 46.9 38.8 46.9C38.9 46.8 38.9 46.6 39.1 46.6 39.2 46.6 39.3 46.4 39.4 46.4S39.6 46.2 39.7 46.2 40 45.9 40.2 45.8C40.4 45.6 40.7 45.5 41 45.3S41.9 44.7 42.4 44.3C42.5 44.3 42.4 44.2 42.5 44.2S42.7 44 42.9 44C43 44 43.1 43.8 43.2 43.8S43.5 43.7 43.6 43.6C44.2 43.2 45.2 42.9 44.7 42 44.7 41.9 44.6 42 44.6 41.9 44.6 41.7 44 41.3 43.8 41.1L43.2 40.5C42.9 40.3 42.6 40.3 42.4 40.1 42.3 39.8 41.9 39.5 41.7 39.2 41.6 39.1 41.5 38.9 41.4 38.7 41.3 38.6 41 38.3 40.8 38.2 40.7 38.1 40.3 37.8 40.1 37.7 40 37.7 39.9 37.7 39.8 37.6L39.7 37.4C39.6 37.3 39.5 37.3 39.3 37.2 39.2 37.1 39.1 37.1 39 37L38.8 36.8C38.6 36.7 38.4 36.5 38.2 36.4L38.1 36.2C38 36.1 37.9 36.1 37.7 36L37.6 35.8C37.5 35.7 37.4 35.7 37.2 35.6L37.1 35.4C37 35.3 36.8 35.3 36.7 35.2L36.3 34.8C36.2 34.7 36.3 34.6 36.2 34.5 36.2 34.5 36 34.5 36 34.4 35.9 34.2 35.8 34.1 35.7 33.9 35.6 33.8 35.4 33.7 35.3 33.6S35.3 33.4 35.2 33.3 34.7 33 34.6 32.8C34.5 32.7 34.6 32.6 34.5 32.5L34.3 32.4C34.2 32.3 34.2 32.2 34.2 32.1L34.1 31.7C33.8 31.5 34 29.6 34.1 29.2 34.1 29.1 34.2 29.2 34.2 29.1S34.4 28.9 34.5 28.8 34.7 28.6 34.9 28.5C35 28.5 35 28.4 35.1 28.4S35.5 28.1 35.7 28.1C35.8 28.1 35.9 27.9 36 27.9S36.3 27.7 36.6 27.7C37.6 27.6 38.3 28.3 39.4 28.1L39.7 28.4C40.2 28.8 40.7 29.4 41.3 29.9 41.6 30.1 41.8 30.4 42.1 30.6 42.2 30.7 42.3 30.7 42.4 30.8 42.4 30.8 42.8 31.2 42.9 31.2L43.1 31.3 43.2 31.5H43.4C43.5 31.6 43.5 31.7 43.6 31.8H43.8C43.9 31.9 43.9 32 44.1 32.1S44.6 32.4 44.8 32.6C44.9 32.7 45 32.7 45.1 32.8L45.2 33H45.4C45.5 33.1 45.5 33.2 45.6 33.3H45.8C45.9 33.4 46.2 33.8 46.5 33.8 46.9 33.3 46.8 32.8 46.9 32.1 47 30.4 46.8 28 47.1 26.4 47.1 26.2 47.2 25.9 47.3 25.7 47.3 25.6 47.3 25.4 47.4 25.3 47.4 25.2 47.6 25.2 47.6 25.1 47.8 24.8 48.1 24.5 48.4 24.3 48.5 24.2 48.6 24 48.7 24 48.8 23.9 49.1 23.9 49.3 23.9 49.4 23.9 49.5 23.7 49.5 23.7H49.8C50.1 23.6 50.3 23.6 50.9 23.7 51.2 23.7 51.4 23.7 51.6 23.8 51.6 23.8 51.6 23.9 51.7 23.9S52.6 24.6 52.6 24.8C52.6 24.8 52.7 24.9 52.7 25 52.8 25.2 52.8 25.3 52.9 25.5 52.9 25.6 53 25.7 53 25.8 53.1 26.1 53.3 27.5 53.2 28.2 53.1 28.7 53.1 29.9 53.1 30.8 52.8 32.1 52.8 33.8 52.9 35.3" fill="#2cb3b2" data-fill-palette-color="accent"></path></svg></g></svg></g></svg></g><defs></defs></svg><rect width="395.52" height="61.02989786167015" fill="none" stroke="none" visibility="hidden"></rect></g></svg></g></svg>